# xmcd CD database file
#
# Track frame offsets:
#	150
#	12787
#	25884
#	39354
#	53486
#	66888
#	77889
#	90557
#	105162
#	117925
#	132886
#	146972
#	161948
#	175774
#	190279
#
# Disc length: 2725 seconds
#
# Revision: 1
# Processed by: cddbd v1.5.1PL0 Copyright (c) Steve Scherf et al.
# Submitted via: CDex 1.50
#
DISCID=c00aa30f
DTITLE=Various Artist - Total Jazz-CD 1
DYEAR=2000
DGENRE=Jazz
TTITLE0=Bring it on Home
TTITLE1=You're so Desirable
TTITLE2=Words
TTITLE3=Mood Indigo
TTITLE4=Shoe Shine Boy
TTITLE5=Dinah
TTITLE6=Minnie the Moocher
TTITLE7=Sweet Georgia Brown
TTITLE8=Gone with the Wind
TTITLE9=Moten's Swing
TTITLE10=Solitude
TTITLE11=From the Bottom of My Heart
TTITLE12=The St. Louis Blues
TTITLE13=Pennsylvania 6:500
TTITLE14=52nd Street Theme
EXTD=YEAR: 2000
EXTT0=
EXTT1=
EXTT2=
EXTT3=
EXTT4=
EXTT5=
EXTT6=
EXTT7=
EXTT8=
EXTT9=
EXTT10=
EXTT11=
EXTT12=
EXTT13=
EXTT14=
PLAYORDER=
